<svg id="Layer_1" data-name="Layer 1" xmlns="http://www.w3.org/2000/svg" viewBox="0 0 210.6 135.93"><defs><style>.cls-1{fill:#232f3e;}</style></defs><title>cart_edit</title><path class="cls-1" d="M100.44,123.07a12.86,12.86,0,1,1-12.86-12.86h0A12.86,12.86,0,0,1,100.44,123.07ZM208.71,14.81H194.16a5.61,5.61,0,0,0-4.94,2.93l-36.14,67a1.54,1.54,0,0,1-1.36.81H93.22a1.54,1.54,0,0,1-1.36-.81L47.71,2.44A4.65,4.65,0,0,0,43.63,0H2.3A2.3,2.3,0,0,0,0,2.3V12.9a2.3,2.3,0,0,0,2.3,2.29H32.67a1.59,1.59,0,0,1,1.39.83L80.22,101.9a4,4,0,0,0,3.52,2.1h77.58a4,4,0,0,0,3.52-2.1l45.55-84.39A1.85,1.85,0,0,0,209.6,15,1.74,1.74,0,0,0,208.71,14.81Zm-51.85,95.4a12.86,12.86,0,1,0,12.86,12.86,12.86,12.86,0,0,0-12.86-12.86Z" transform="translate(0 0)"/></svg>